<?xml version="1.0" encoding="UTF-8"?>
<!DOCTYPE svg PUBLIC "-//W3C//DTD SVG 1.1//EN" "http://www.w3.org/Graphics/SVG/1.1/DTD/svg11.dtd">
<svg xmlns="http://www.w3.org/2000/svg" version="1.1" width="412px" height="263px" style="shape-rendering:geometricPrecision; text-rendering:geometricPrecision; image-rendering:optimizeQuality; fill-rule:evenodd; clip-rule:evenodd" xmlns:xlink="http://www.w3.org/1999/xlink">
<g><path style="opacity:1" fill="#f0e0e0" d="M -0.5,-0.5 C 136.833,-0.5 274.167,-0.5 411.5,-0.5C 411.5,87.1667 411.5,174.833 411.5,262.5C 274.167,262.5 136.833,262.5 -0.5,262.5C -0.5,174.833 -0.5,87.1667 -0.5,-0.5 Z"/></g>
<g><path style="opacity:1" fill="#46ab92" d="M 239.5,142.5 C 239.667,119.164 239.5,95.831 239,72.5C 235.123,75.5214 232.289,79.188 230.5,83.5C 229.508,83.3284 228.842,83.6618 228.5,84.5C 218.521,93.8123 208.854,103.479 199.5,113.5C 195.308,115.32 192.641,113.987 191.5,109.5C 203.888,94.6065 217.222,80.4399 231.5,67C 234.835,64.7091 237.668,65.2091 240,68.5C 240.83,93.3368 240.663,118.003 239.5,142.5 Z"/></g>
<g><path style="opacity:1" fill="#4bb753" d="M 239.5,142.5 C 235.844,146.642 232.51,146.309 229.5,141.5C 229.5,137.167 229.5,132.833 229.5,128.5C 230.496,113.676 230.829,98.676 230.5,83.5C 232.289,79.188 235.123,75.5214 239,72.5C 239.5,95.831 239.667,119.164 239.5,142.5 Z"/></g>
<g><path style="opacity:1" fill="#f59421" d="M 185.5,138.5 C 182.167,142.5 178.5,146.167 174.5,149.5C 174.333,125.831 174.5,102.164 175,78.5C 177.707,76.1145 180.54,75.9478 183.5,78C 187.969,81.7903 191.636,86.1237 194.5,91C 192.668,97.0829 189.501,97.9162 185,93.5C 184.172,108.672 184.339,123.672 185.5,138.5 Z"/></g>
<g><path style="opacity:1" fill="#de272c" d="M 174.5,149.5 C 178.5,146.167 182.167,142.5 185.5,138.5C 195.298,129.202 204.965,119.702 214.5,110C 221.844,107.683 224.01,110.183 221,117.5C 208.527,129.973 196.027,142.473 183.5,155C 177.935,157.624 174.935,155.791 174.5,149.5 Z"/></g>
<g><path style="opacity:1" fill="#afd0a8" d="M 228.5,84.5 C 228.842,83.6618 229.508,83.3284 230.5,83.5C 230.829,98.676 230.496,113.676 229.5,128.5C 229.167,127.833 228.833,127.167 228.5,126.5C 229.833,112.5 229.833,98.5 228.5,84.5 Z"/></g>
<g><path style="opacity:1" fill="#349e4c" d="M 228.5,126.5 C 228.833,127.167 229.167,127.833 229.5,128.5C 229.5,132.833 229.5,137.167 229.5,141.5C 225.345,138.688 222.345,135.021 220.5,130.5C 221.256,125.629 223.923,124.296 228.5,126.5 Z"/></g>
<g><path style="opacity:1" fill="#d54845" d="M 47.5,215.5 C 51.1817,215.335 54.8484,215.501 58.5,216C 60.6515,216.265 62.3181,217.265 63.5,219C 63.3865,220.28 62.7199,221.113 61.5,221.5C 51.9259,216.966 44.7592,219.3 40,228.5C 39.5922,242.069 46.0922,247.235 59.5,244C 63.0385,242.028 64.0385,243.028 62.5,247C 47.0253,252.606 38.0253,247.439 35.5,231.5C 35.5235,226.922 37.1902,223.089 40.5,220C 42.8981,218.476 45.2314,216.976 47.5,215.5 Z"/></g>
<g><path style="opacity:1" fill="#e18786" d="M 181.5,216.5 C 187.979,215.509 194.646,215.176 201.5,215.5C 201.5,216.833 201.5,218.167 201.5,219.5C 200.167,219.5 198.833,219.5 197.5,219.5C 198.398,218.842 199.398,218.176 200.5,217.5C 194.202,216.504 187.868,216.17 181.5,216.5 Z"/></g>
<g><path style="opacity:1" fill="#d54644" d="M 72.5,217.5 C 73.6009,216.402 74.9343,216.235 76.5,217C 79.4794,221.805 82.8127,226.305 86.5,230.5C 89.8174,226.545 92.6507,222.212 95,217.5C 96.4936,216.253 97.9936,216.253 99.5,217.5C 96.1982,223.299 92.6982,228.966 89,234.5C 88.5008,239.155 88.3342,243.821 88.5,248.5C 87.1667,248.5 85.8333,248.5 84.5,248.5C 84.6657,244.154 84.499,239.821 84,235.5C 80.3918,229.266 76.5585,223.266 72.5,217.5 Z"/></g>
<g><path style="opacity:1" fill="#d4403f" d="M 109.5,216.5 C 115.176,216.334 120.843,216.501 126.5,217C 134.178,220.718 135.511,226.052 130.5,233C 125.1,235.278 119.434,236.111 113.5,235.5C 113.5,239.833 113.5,244.167 113.5,248.5C 112.167,248.5 110.833,248.5 109.5,248.5C 109.5,237.833 109.5,227.167 109.5,216.5 Z"/></g>
<g><path style="opacity:1" fill="#d54543" d="M 143.5,216.5 C 144.833,216.5 146.167,216.5 147.5,216.5C 147.5,220.833 147.5,225.167 147.5,229.5C 153.5,229.5 159.5,229.5 165.5,229.5C 165.5,225.167 165.5,220.833 165.5,216.5C 166.833,216.5 168.167,216.5 169.5,216.5C 169.5,227.167 169.5,237.833 169.5,248.5C 168.167,248.5 166.833,248.5 165.5,248.5C 165.5,243.5 165.5,238.5 165.5,233.5C 159.5,233.5 153.5,233.5 147.5,233.5C 147.5,238.5 147.5,243.5 147.5,248.5C 146.167,248.5 144.833,248.5 143.5,248.5C 143.5,237.833 143.5,227.167 143.5,216.5 Z"/></g>
<g><path style="opacity:1" fill="#d4403f" d="M 181.5,216.5 C 187.868,216.17 194.202,216.504 200.5,217.5C 199.398,218.176 198.398,218.842 197.5,219.5C 193.167,219.5 188.833,219.5 184.5,219.5C 184.5,222.833 184.5,226.167 184.5,229.5C 189.5,229.5 194.5,229.5 199.5,229.5C 199.5,230.5 199.5,231.5 199.5,232.5C 194.821,232.334 190.155,232.501 185.5,233C 184.54,236.73 184.207,240.563 184.5,244.5C 190.167,244.5 195.833,244.5 201.5,244.5C 201.5,245.833 201.5,247.167 201.5,248.5C 194.833,248.5 188.167,248.5 181.5,248.5C 181.5,237.833 181.5,227.167 181.5,216.5 Z"/></g>
<g><path style="opacity:1" fill="#d54342" d="M 212.5,216.5 C 218.509,216.334 224.509,216.501 230.5,217C 235.224,219.435 236.724,223.269 235,228.5C 233.145,230.355 231.312,232.188 229.5,234C 231.952,238.62 234.618,243.12 237.5,247.5C 236.277,248.614 234.944,248.781 233.5,248C 230.636,243.967 227.969,239.801 225.5,235.5C 222.572,234.516 219.572,234.183 216.5,234.5C 216.5,239.167 216.5,243.833 216.5,248.5C 215.167,248.5 213.833,248.5 212.5,248.5C 212.5,237.833 212.5,227.167 212.5,216.5 Z"/></g>
<g><path style="opacity:1" fill="#d54442" d="M 247.5,216.5 C 249.527,216.338 251.527,216.505 253.5,217C 256.641,221.641 259.974,226.141 263.5,230.5C 266.747,226.341 269.747,222.008 272.5,217.5C 274.396,216.534 276.396,216.201 278.5,216.5C 278.5,227.167 278.5,237.833 278.5,248.5C 277.167,248.5 275.833,248.5 274.5,248.5C 274.666,239.494 274.5,230.494 274,221.5C 270.578,226.678 266.911,231.678 263,236.5C 259.333,231.5 255.667,226.5 252,221.5C 251.5,230.494 251.334,239.494 251.5,248.5C 250.167,248.5 248.833,248.5 247.5,248.5C 247.5,237.833 247.5,227.167 247.5,216.5 Z"/></g>
<g><path style="opacity:1" fill="#d54543" d="M 301.5,216.5 C 303.604,216.201 305.604,216.534 307.5,217.5C 311.833,227.5 316.167,237.5 320.5,247.5C 318.994,248.747 317.494,248.747 316,247.5C 314.901,244.136 313.401,240.97 311.5,238C 306.5,237.333 301.5,237.333 296.5,238C 295.204,240.761 294.037,243.595 293,246.5C 291.759,248.421 290.259,248.754 288.5,247.5C 292.644,237.061 296.978,226.728 301.5,216.5 Z"/></g>
<g><path style="opacity:1" fill="#d33a3a" d="M 326.5,216.5 C 334.167,216.5 341.833,216.5 349.5,216.5C 349.5,217.5 349.5,218.5 349.5,219.5C 346.167,219.5 342.833,219.5 339.5,219.5C 339.5,229.167 339.5,238.833 339.5,248.5C 338.5,248.5 337.5,248.5 336.5,248.5C 336.5,238.833 336.5,229.167 336.5,219.5C 333.167,219.5 329.833,219.5 326.5,219.5C 326.5,218.5 326.5,217.5 326.5,216.5 Z"/></g>
<g><path style="opacity:1" fill="#d43f3e" d="M 359.5,216.5 C 366.167,216.5 372.833,216.5 379.5,216.5C 379.5,217.5 379.5,218.5 379.5,219.5C 374.167,219.5 368.833,219.5 363.5,219.5C 363.5,222.833 363.5,226.167 363.5,229.5C 368.5,229.5 373.5,229.5 378.5,229.5C 378.5,230.5 378.5,231.5 378.5,232.5C 373.5,232.5 368.5,232.5 363.5,232.5C 363.5,236.5 363.5,240.5 363.5,244.5C 369.167,244.5 374.833,244.5 380.5,244.5C 380.5,245.833 380.5,247.167 380.5,248.5C 373.5,248.5 366.5,248.5 359.5,248.5C 359.5,237.833 359.5,227.167 359.5,216.5 Z"/></g>
<g><path style="opacity:1" fill="#f0d8d8" d="M 215.5,219.5 C 219.846,219.334 224.179,219.501 228.5,220C 232.485,223.286 232.485,226.619 228.5,230C 224.179,230.499 219.846,230.666 215.5,230.5C 215.5,226.833 215.5,223.167 215.5,219.5 Z"/></g>
<g><path style="opacity:1" fill="#f0dbdb" d="M 113.5,219.5 C 117.182,219.335 120.848,219.501 124.5,220C 131.034,223.905 131.034,227.905 124.5,232C 120.848,232.499 117.182,232.665 113.5,232.5C 113.5,228.167 113.5,223.833 113.5,219.5 Z"/></g>
<g><path style="opacity:1" fill="#f0d9d9" d="M 303.5,220.5 C 304.79,221.058 305.623,222.058 306,223.5C 307.467,226.758 308.633,230.092 309.5,233.5C 305.774,233.823 302.107,233.489 298.5,232.5C 300.179,228.479 301.846,224.479 303.5,220.5 Z"/></g>
</svg>
